<mxfile host="app.diagrams.net" modified="2022-08-19T14:26:34.110Z" agent="5.0 (Macintosh; Intel Mac OS X 10_15_7) AppleWebKit/605.1.15 (KHTML, like Gecko) Version/15.4 Safari/605.1.15" etag="-pRZ-ixVyofbjKZOeBjD" version="20.2.5" type="github">
  <diagram id="C5RBs43oDa-KdzZeNtuy" name="Page-1">
    <mxGraphModel dx="705" dy="645" grid="1" gridSize="10" guides="1" tooltips="1" connect="1" arrows="1" fold="1" page="1" pageScale="1" pageWidth="827" pageHeight="1169" math="0" shadow="0">
      <root>
        <mxCell id="WIyWlLk6GJQsqaUBKTNV-0" />
        <mxCell id="WIyWlLk6GJQsqaUBKTNV-1" parent="WIyWlLk6GJQsqaUBKTNV-0" />
        <mxCell id="03W-Jpye9Pk26QC78ena-2" value="" style="endArrow=classic;html=1;rounded=0;exitX=0.5;exitY=1;exitDx=0;exitDy=0;" edge="1" parent="WIyWlLk6GJQsqaUBKTNV-1">
          <mxGeometry width="50" height="50" relative="1" as="geometry">
            <mxPoint x="312" y="150" as="sourcePoint" />
            <mxPoint x="312" y="210" as="targetPoint" />
          </mxGeometry>
        </mxCell>
        <mxCell id="03W-Jpye9Pk26QC78ena-4" value="input : array n" style="shape=parallelogram;perimeter=parallelogramPerimeter;whiteSpace=wrap;html=1;fixedSize=1;" vertex="1" parent="WIyWlLk6GJQsqaUBKTNV-1">
          <mxGeometry x="242" y="210" width="140" height="60" as="geometry" />
        </mxCell>
        <mxCell id="03W-Jpye9Pk26QC78ena-5" value="" style="endArrow=classic;html=1;rounded=0;exitX=0.5;exitY=1;exitDx=0;exitDy=0;entryX=0.5;entryY=0;entryDx=0;entryDy=0;" edge="1" parent="WIyWlLk6GJQsqaUBKTNV-1" source="03W-Jpye9Pk26QC78ena-4" target="03W-Jpye9Pk26QC78ena-7">
          <mxGeometry width="50" height="50" relative="1" as="geometry">
            <mxPoint x="382" y="360" as="sourcePoint" />
            <mxPoint x="312" y="330" as="targetPoint" />
          </mxGeometry>
        </mxCell>
        <mxCell id="03W-Jpye9Pk26QC78ena-7" value="Initialize SUM and set it to 0" style="rounded=0;whiteSpace=wrap;html=1;" vertex="1" parent="WIyWlLk6GJQsqaUBKTNV-1">
          <mxGeometry x="252" y="300" width="120" height="60" as="geometry" />
        </mxCell>
        <mxCell id="03W-Jpye9Pk26QC78ena-12" value="Iterate through&lt;br&gt;each number in the array" style="rounded=0;whiteSpace=wrap;html=1;" vertex="1" parent="WIyWlLk6GJQsqaUBKTNV-1">
          <mxGeometry x="252" y="390" width="120" height="60" as="geometry" />
        </mxCell>
        <mxCell id="03W-Jpye9Pk26QC78ena-19" value="return SUM" style="shape=parallelogram;perimeter=parallelogramPerimeter;whiteSpace=wrap;html=1;fixedSize=1;" vertex="1" parent="WIyWlLk6GJQsqaUBKTNV-1">
          <mxGeometry x="252" y="555" width="120" height="60" as="geometry" />
        </mxCell>
        <mxCell id="03W-Jpye9Pk26QC78ena-20" value="" style="endArrow=classic;html=1;rounded=0;exitX=0.5;exitY=1;exitDx=0;exitDy=0;" edge="1" parent="WIyWlLk6GJQsqaUBKTNV-1" source="03W-Jpye9Pk26QC78ena-19">
          <mxGeometry width="50" height="50" relative="1" as="geometry">
            <mxPoint x="322" y="730" as="sourcePoint" />
            <mxPoint x="312" y="630" as="targetPoint" />
          </mxGeometry>
        </mxCell>
        <mxCell id="03W-Jpye9Pk26QC78ena-21" value="End" style="rounded=1;whiteSpace=wrap;html=1;fillColor=#FF3333;fontColor=#FFFFFF;" vertex="1" parent="WIyWlLk6GJQsqaUBKTNV-1">
          <mxGeometry x="250" y="630" width="120" height="60" as="geometry" />
        </mxCell>
        <mxCell id="03W-Jpye9Pk26QC78ena-23" value="&lt;span style=&quot;background-color: rgb(0, 255, 0);&quot;&gt;&lt;font color=&quot;#000000&quot;&gt;Start&lt;/font&gt;&lt;/span&gt;" style="ellipse;whiteSpace=wrap;html=1;labelBackgroundColor=#66FF66;fontColor=#FFFFFF;fillColor=#33FF33;" vertex="1" parent="WIyWlLk6GJQsqaUBKTNV-1">
          <mxGeometry x="252" y="110" width="120" height="80" as="geometry" />
        </mxCell>
        <mxCell id="03W-Jpye9Pk26QC78ena-16" value="Add the squares of each number to SUM" style="rounded=0;whiteSpace=wrap;html=1;" vertex="1" parent="WIyWlLk6GJQsqaUBKTNV-1">
          <mxGeometry x="252" y="470" width="120" height="60" as="geometry" />
        </mxCell>
        <mxCell id="03W-Jpye9Pk26QC78ena-30" value="" style="endArrow=classic;html=1;rounded=0;fontColor=#000000;exitX=0.5;exitY=1;exitDx=0;exitDy=0;entryX=0.5;entryY=0;entryDx=0;entryDy=0;" edge="1" parent="WIyWlLk6GJQsqaUBKTNV-1" source="03W-Jpye9Pk26QC78ena-7" target="03W-Jpye9Pk26QC78ena-12">
          <mxGeometry width="50" height="50" relative="1" as="geometry">
            <mxPoint x="322" y="380" as="sourcePoint" />
            <mxPoint x="372" y="330" as="targetPoint" />
          </mxGeometry>
        </mxCell>
        <mxCell id="03W-Jpye9Pk26QC78ena-31" value="" style="endArrow=classic;html=1;rounded=0;fontColor=#000000;exitX=0.5;exitY=1;exitDx=0;exitDy=0;entryX=0.5;entryY=0;entryDx=0;entryDy=0;" edge="1" parent="WIyWlLk6GJQsqaUBKTNV-1" source="03W-Jpye9Pk26QC78ena-12" target="03W-Jpye9Pk26QC78ena-16">
          <mxGeometry width="50" height="50" relative="1" as="geometry">
            <mxPoint x="372" y="480" as="sourcePoint" />
            <mxPoint x="422" y="430" as="targetPoint" />
          </mxGeometry>
        </mxCell>
        <mxCell id="03W-Jpye9Pk26QC78ena-32" value="" style="endArrow=classic;html=1;rounded=0;fontColor=#000000;exitX=0.5;exitY=1;exitDx=0;exitDy=0;entryX=0.5;entryY=0;entryDx=0;entryDy=0;" edge="1" parent="WIyWlLk6GJQsqaUBKTNV-1" source="03W-Jpye9Pk26QC78ena-16" target="03W-Jpye9Pk26QC78ena-19">
          <mxGeometry width="50" height="50" relative="1" as="geometry">
            <mxPoint x="372" y="480" as="sourcePoint" />
            <mxPoint x="422" y="430" as="targetPoint" />
          </mxGeometry>
        </mxCell>
        <mxCell id="03W-Jpye9Pk26QC78ena-33" value="&lt;span style=&quot;background-color: rgb(255, 255, 255);&quot;&gt;For Loop condition&lt;/span&gt;" style="strokeWidth=2;html=1;shape=mxgraph.flowchart.annotation_2;align=left;labelPosition=right;pointerEvents=1;labelBackgroundColor=#00FF00;fontColor=#000000;fillColor=#33FF33;" vertex="1" parent="WIyWlLk6GJQsqaUBKTNV-1">
          <mxGeometry x="372" y="370" width="50" height="100" as="geometry" />
        </mxCell>
        <mxCell id="03W-Jpye9Pk26QC78ena-38" value="&lt;b&gt;&lt;font style=&quot;font-size: 17px;&quot;&gt;PSEUDOCODE TASK 0&lt;/font&gt;&lt;/b&gt;" style="text;html=1;strokeColor=none;fillColor=none;align=center;verticalAlign=middle;whiteSpace=wrap;rounded=0;labelBackgroundColor=#FFFFFF;fontColor=#000000;" vertex="1" parent="WIyWlLk6GJQsqaUBKTNV-1">
          <mxGeometry x="150" y="62" width="330" height="40" as="geometry" />
        </mxCell>
        <mxCell id="03W-Jpye9Pk26QC78ena-39" value="&lt;font style=&quot;font-size: 10px;&quot;&gt;IKENNA UDEMEZUE&lt;/font&gt;" style="text;html=1;align=center;verticalAlign=middle;resizable=0;points=[];autosize=1;strokeColor=none;fillColor=none;fontSize=17;fontColor=#000000;" vertex="1" parent="WIyWlLk6GJQsqaUBKTNV-1">
          <mxGeometry x="540" y="645" width="120" height="30" as="geometry" />
        </mxCell>
      </root>
    </mxGraphModel>
  </diagram>
</mxfile>
